<?xml version="1.0" standalone="no"?><!DOCTYPE svg PUBLIC "-//W3C//DTD SVG 1.1//EN" "http://www.w3.org/Graphics/SVG/1.1/DTD/svg11.dtd"><svg t="1689854183101" class="icon" viewBox="0 0 1024 1024" version="1.1" xmlns="http://www.w3.org/2000/svg" p-id="3515" xmlns:xlink="http://www.w3.org/1999/xlink" width="200" height="200"><path d="M42.666667 42.666667a42.666667 42.666667 0 0 1 42.666666-42.666667h853.333334a42.666667 42.666667 0 0 1 42.666666 42.666667v938.666666a42.666667 42.666667 0 0 1-42.666666 42.666667H85.333333a42.666667 42.666667 0 0 1-42.666666-42.666667V42.666667z m85.333333 42.666666v853.333334h768V85.333333H128z" p-id="3516"></path><path d="M469.333333 725.333333a42.666667 42.666667 0 0 1-42.666666 42.666667H256a42.666667 42.666667 0 1 1 0-85.333333h170.666667a42.666667 42.666667 0 0 1 42.666666 42.666666zM725.333333 554.666667a42.666667 42.666667 0 0 1-42.666666 42.666666H256a42.666667 42.666667 0 1 1 0-85.333333h426.666667a42.666667 42.666667 0 0 1 42.666666 42.666667zM682.666667 725.333333a42.666667 42.666667 0 1 0 0 85.333334 42.666667 42.666667 0 0 0 0-85.333334z m-128 42.666667a128 128 0 1 1 256 0 128 128 0 0 1-256 0zM298.666667 42.666667a42.666667 42.666667 0 0 1 42.666666-42.666667h341.333334a42.666667 42.666667 0 0 1 42.666666 42.666667v341.333333a42.666667 42.666667 0 0 1-63.104 37.461333L512 339.541333l-150.229333 81.92A42.666667 42.666667 0 0 1 298.666667 384V42.666667z m85.333333 42.666666v226.773334l128-69.802667 128 69.802667V85.333333H384z" p-id="3517"></path></svg>