<?xml version="1.0" standalone="no"?><!DOCTYPE svg PUBLIC "-//W3C//DTD SVG 1.1//EN" "http://www.w3.org/Graphics/SVG/1.1/DTD/svg11.dtd"><svg t="1689853308798" class="icon" viewBox="0 0 1024 1024" version="1.1" xmlns="http://www.w3.org/2000/svg" p-id="1195" xmlns:xlink="http://www.w3.org/1999/xlink" width="200" height="200"><path d="M511.24 0C286.688 0 104 184.032 104 410.24v11.328c0 114.4 65.104 247.712 193.52 396.232 93.088 107.664 184.88 182.728 188.744 185.88l24.976 20.32 24.96-20.32c3.864-3.152 95.656-78.216 188.752-185.88 128.416-148.52 193.52-281.832 193.52-396.232V410.24C918.472 184.032 735.784 0 511.24 0z m327.768 421.568c0 193.328-247.28 427.36-327.768 498.408-80.52-71.072-327.776-305.088-327.776-498.4v-11.344c0-182.064 147.04-330.184 327.776-330.184 180.736 0 327.768 148.12 327.768 330.184v11.336zM461.176 486.64l81.584 204.8 169.104-457.24L257.664 404.16l203.52 82.488zM576.8 370.136l-36.784 99.456-17.72-44.456-44.392-18L576.8 370.136z" fill="#000000" p-id="1196"></path></svg>