<?xml version="1.0" standalone="no"?><!DOCTYPE svg PUBLIC "-//W3C//DTD SVG 1.1//EN" "http://www.w3.org/Graphics/SVG/1.1/DTD/svg11.dtd"><svg t="1689868121477" class="icon" viewBox="0 0 1024 1024" version="1.1" xmlns="http://www.w3.org/2000/svg" p-id="3829" xmlns:xlink="http://www.w3.org/1999/xlink" width="200" height="200"><path d="M140.501333 243.498667a42.666667 42.666667 0 0 1 0-60.330667l128-128a42.666667 42.666667 0 0 1 60.330667 60.330667L230.997333 213.333333l97.834667 97.834667a42.666667 42.666667 0 0 1-60.330667 60.330667l-128-128z" p-id="3830"></path><path d="M128 213.333333a42.666667 42.666667 0 0 1 42.666667-42.666666h768a42.666667 42.666667 0 0 1 42.666666 42.666666v725.333334a42.666667 42.666667 0 0 1-42.666666 42.666666H85.333333a42.666667 42.666667 0 1 1 0-85.333333h810.666667V256H170.666667a42.666667 42.666667 0 0 1-42.666667-42.666667z" p-id="3831"></path></svg>