<?xml version="1.0" standalone="no"?><!DOCTYPE svg PUBLIC "-//W3C//DTD SVG 1.1//EN" "http://www.w3.org/Graphics/SVG/1.1/DTD/svg11.dtd"><svg t="1689854148275" class="icon" viewBox="0 0 1024 1024" version="1.1" xmlns="http://www.w3.org/2000/svg" p-id="3199" xmlns:xlink="http://www.w3.org/1999/xlink" width="200" height="200"><path d="M682.666667 810.666667a42.666667 42.666667 0 0 1 42.666666-42.666667h170.666667a42.666667 42.666667 0 0 1 42.666667 42.666667v170.666666a42.666667 42.666667 0 0 1-42.666667 42.666667h-170.666667a42.666667 42.666667 0 0 1-42.666666-42.666667v-170.666666z m85.333333 42.666666v85.333334h85.333333v-85.333334h-85.333333zM384 597.333333a42.666667 42.666667 0 0 0 42.666667 42.666667h170.666666a42.666667 42.666667 0 0 0 42.666667-42.666667v-170.666666a42.666667 42.666667 0 0 0-42.666667-42.666667h-170.666666a42.666667 42.666667 0 0 0-42.666667 42.666667v170.666666z m85.333333-42.666666v-85.333334h85.333334v85.333334h-85.333334z" p-id="3200"></path><path d="M1024 896a42.666667 42.666667 0 0 1-42.666667 42.666667h-85.333333a42.666667 42.666667 0 1 1 0-85.333334h85.333333a42.666667 42.666667 0 0 1 42.666667 42.666667z m-256 0a42.666667 42.666667 0 0 1-42.666667 42.666667H42.666667a42.666667 42.666667 0 1 1 0-85.333334h682.666666a42.666667 42.666667 0 0 1 42.666667 42.666667zM85.333333 213.333333a42.666667 42.666667 0 0 0 42.666667 42.666667h170.666667a42.666667 42.666667 0 0 0 42.666666-42.666667V42.666667a42.666667 42.666667 0 0 0-42.666666-42.666667H128a42.666667 42.666667 0 0 0-42.666667 42.666667v170.666666z m85.333334-42.666666V85.333333h85.333333v85.333334H170.666667z" p-id="3201"></path><path d="M0 128a42.666667 42.666667 0 0 0 42.666667 42.666667h85.333333a42.666667 42.666667 0 0 0 0-85.333334H42.666667a42.666667 42.666667 0 0 0-42.666667 42.666667z m256 0a42.666667 42.666667 0 0 0 42.666667 42.666667h682.666666a42.666667 42.666667 0 1 0 0-85.333334H298.666667a42.666667 42.666667 0 0 0-42.666667 42.666667zM0 512a42.666667 42.666667 0 0 0 42.666667 42.666667h384a42.666667 42.666667 0 1 0 0-85.333334H42.666667a42.666667 42.666667 0 0 0-42.666667 42.666667z m554.666667 0a42.666667 42.666667 0 0 0 42.666666 42.666667h384a42.666667 42.666667 0 1 0 0-85.333334h-384a42.666667 42.666667 0 0 0-42.666666 42.666667z" p-id="3202"></path></svg>