<?xml version="1.0" standalone="no"?><!DOCTYPE svg PUBLIC "-//W3C//DTD SVG 1.1//EN" "http://www.w3.org/Graphics/SVG/1.1/DTD/svg11.dtd"><svg t="1689854171080" class="icon" viewBox="0 0 1024 1024" version="1.1" xmlns="http://www.w3.org/2000/svg" p-id="3357" xmlns:xlink="http://www.w3.org/1999/xlink" width="200" height="200"><path d="M981.248 938.666667a42.666667 42.666667 0 0 1-42.666667-42.666667v-213.333333h-213.333333a42.666667 42.666667 0 1 1 0-85.333334h256a42.666667 42.666667 0 0 1 42.666667 42.666667v256a42.666667 42.666667 0 0 1-42.666667 42.666667z" p-id="3358"></path><path d="M494.378667 938.666667c203.52 0 368.128-130.602667 402.389333-306.773334a42.666667 42.666667 0 0 1 83.797333 16.213334C937.557333 869.12 733.781333 1024 494.378667 1024 259.968 1024 61.44 868.608 11.818667 657.152A448.128 448.128 0 0 1 0 554.666667a42.666667 42.666667 0 1 1 85.333333 0c0 28.544 3.328 56.32 9.557334 82.986666 40.106667 170.666667 202.410667 301.013333 399.488 301.013334zM42.666667 85.333333a42.666667 42.666667 0 0 1 42.666666 42.666667v213.333333h213.333334a42.666667 42.666667 0 1 1 0 85.333334H42.666667a42.666667 42.666667 0 0 1-42.666667-42.666667V128a42.666667 42.666667 0 0 1 42.666667-42.666667z" p-id="3359"></path><path d="M529.536 85.333333c-203.52 0-368.128 130.602667-402.346667 306.773334a42.666667 42.666667 0 0 1-83.797333-16.213334C86.357333 154.88 290.133333 0 529.493333 0c234.410667 0 432.938667 155.392 482.56 366.848 7.765333 33.024 11.818667 67.328 11.818667 102.485333a42.666667 42.666667 0 1 1-85.333333 0 362.666667 362.666667 0 0 0-9.557334-82.986666C888.96 215.68 726.656 85.333333 529.536 85.333333z" p-id="3360"></path></svg>